<svg width="24" height="24" viewBox="0 0 24 24" fill="#000000" xmlns="http://www.w3.org/2000/svg">
<path fill-rule="evenodd" clip-rule="evenodd" d="M12 1.89998C6.4219 1.89998 1.89998 6.4219 1.89998 12C1.89998 17.5781 6.4219 22.1 12 22.1C17.5781 22.1 22.1 17.5781 22.1 12C22.1 6.4219 17.5781 1.89998 12 1.89998ZM0.0999756 12C0.0999756 5.42779 5.42779 0.0999756 12 0.0999756C18.5722 0.0999756 23.9 5.42779 23.9 12C23.9 18.5722 18.5722 23.9 12 23.9C5.42779 23.9 0.0999756 18.5722 0.0999756 12Z" fill="#000000"/>
<path fill-rule="evenodd" clip-rule="evenodd" d="M18.5837 7.56745C19.0067 7.82854 19.1379 8.38307 18.8768 8.80603L14.8028 15.406C14.6434 15.6643 14.3646 15.8248 14.0612 15.833C13.7578 15.8412 13.4708 15.6959 13.2977 15.4466L10.0071 10.7083L6.65462 16.1394C6.39353 16.5623 5.839 16.6936 5.41603 16.4325C4.99307 16.1714 4.86184 15.6168 5.12293 15.1939L9.19698 8.59388C9.35638 8.33565 9.63519 8.17514 9.93854 8.16695C10.2419 8.15877 10.529 8.30401 10.7021 8.55327L13.9926 13.2917L17.3452 7.86055C17.6062 7.43759 18.1608 7.30636 18.5837 7.56745Z" fill="#000000"/>
</svg>
