<svg width="128" height="24" viewBox="0 0 128 24" fill="none" xmlns="http://www.w3.org/2000/svg">
<path d="M13.29 2C7.256 2 3 6.27 3 12.164C3 18.058 7.256 22.328 13.29 22.328C16.874 22.328 19.828 20.732 21.564 18.184L18.372 15.888C17.196 17.596 15.432 18.576 13.262 18.576C9.804 18.576 7.088 16.098 7.074 12.164C7.074 8.356 9.706 5.752 13.262 5.752C15.446 5.752 17.224 6.76 18.33 8.454L21.69 6.396C20.094 3.652 16.902 2 13.29 2Z" fill="white"/>
<path d="M33.1766 2C27.1426 2 22.8866 6.312 22.8866 12.164C22.8866 18.016 27.1426 22.328 33.1766 22.328C39.2106 22.328 43.4806 18.016 43.4806 12.164C43.4806 6.312 39.2106 2 33.1766 2ZM33.1766 5.752C36.7886 5.752 39.3926 8.356 39.3926 12.164C39.3926 15.972 36.7886 18.576 33.1766 18.576C29.5786 18.576 26.9606 15.972 26.9606 12.164C26.9606 8.356 29.5786 5.752 33.1766 5.752Z" fill="white"/>
<path d="M50.0507 2.364H46.1447V21.964H50.0507V2.364Z" fill="white"/>
<path d="M71.1999 2.364H67.2799V15.454L57.3259 2.364H53.6719V21.964H57.5779L57.5919 8.874L67.5319 21.964H71.1999V2.364Z" fill="white"/>
<path d="M86.2823 2.364H82.3763V14.46C82.3763 17.288 81.1443 18.576 79.0723 18.576C77.2663 18.576 76.0623 17.736 75.2643 16.756L72.9963 19.598C74.0603 20.9 76.0063 22.314 79.2543 22.314C83.3423 22.314 86.2823 19.738 86.2823 14.824V2.364Z" fill="white"/>
<path d="M99.4648 2.364H94.7048L87.0748 21.964H91.1488L92.8568 17.4H101.215L102.923 21.964H107.095L99.4648 2.364ZM97.0428 6.228L99.8708 13.802H94.2008L97.0428 6.228Z" fill="white"/>
<path d="M108.684 2.364V21.964H112.59V14.166H113.738L119.45 21.964H124.182L118.148 14.11C121.914 13.746 124.154 11.548 124.154 8.328C124.154 4.576 121.648 2.364 116.972 2.364H108.684ZM116.902 5.962C118.974 5.962 120.136 6.704 120.136 8.328C120.136 9.98 119.03 10.764 116.902 10.764H112.59V5.962H116.902Z" fill="white"/>
</svg>
