<svg width="64" height="64" viewBox="0 0 64 64" fill="none" xmlns="http://www.w3.org/2000/svg">
<path fill-rule="evenodd" clip-rule="evenodd" d="M46.2829 46C42.653 49.7027 37.5948 52 32 52C26.4052 52 21.347 49.7027 17.7171 46H46.2829ZM49.3244 42H14.6756C12.9739 39.0583 12 35.6429 12 32C12 20.9543 20.9543 12 32 12C43.0457 12 52 20.9543 52 32C52 35.6429 51.0261 39.0583 49.3244 42ZM55.6682 36C55.8864 34.6992 56 33.3628 56 32C56 18.7452 45.2548 8 32 8C18.7452 8 8 18.7452 8 32C8 33.3628 8.1136 34.6992 8.33183 36H4L1 46H12.5042C16.8609 52.0563 23.9699 56 32 56C40.0301 56 47.1391 52.0563 51.4958 46H63L60 36H55.6682Z" fill="white"/>
</svg>
