<svg width="24" height="24" viewBox="0 0 24 24" fill="none" xmlns="http://www.w3.org/2000/svg">
<path fill-rule="evenodd" clip-rule="evenodd" d="M12.1094 3.31569C12.0474 3.25934 11.9528 3.25934 11.8908 3.31569L4.30107 10.2154C4.04569 10.4476 3.9001 10.7767 3.9001 11.1219V19.1H8.56885V14.4545C8.56885 13.4052 9.41951 12.5545 10.4688 12.5545H13.8126C14.8619 12.5545 15.7126 13.4052 15.7126 14.4545V19.1H20.1001V11.1219C20.1001 10.7767 19.9545 10.4476 19.6991 10.2154L12.1094 3.31569ZM10.68 1.98379C11.4285 1.3033 12.5717 1.3033 13.3202 1.98379L20.9099 8.88353C21.5406 9.45684 21.9001 10.2696 21.9001 11.1219V20C21.9001 20.4971 21.4972 20.9 21.0001 20.9H14.8126C14.3155 20.9 13.9126 20.4971 13.9126 20V14.4545C13.9126 14.3993 13.8678 14.3545 13.8126 14.3545H10.4688C10.4136 14.3545 10.3688 14.3993 10.3688 14.4545V20C10.3688 20.4971 9.9659 20.9 9.46885 20.9H3.0001C2.50304 20.9 2.1001 20.4971 2.1001 20V11.1219C2.1001 10.2696 2.45963 9.45684 3.09026 8.88353L10.68 1.98379Z" fill="black"/>
</svg>
