<svg colorMode="default" icon="[object Object]" width="24" height="24" viewBox="0 0 24 24" fill="none" xmlns="http://www.w3.org/2000/svg" class="r-6koalj r-1m5jpoy r-1d4mawv"><path fill-rule="evenodd" clip-rule="evenodd" d="M15.3 5.05002C14.2354 5.05002 13.2285 5.29736 12.3223 5.72856C11.9483 5.90653 11.5008 5.74759 11.3228 5.37356C11.1448 4.99953 11.3038 4.55205 11.6778 4.37407C12.7736 3.85267 13.9997 3.55002 15.3 3.55002C19.9669 3.55002 23.75 7.3332 23.75 12C23.75 16.6668 19.9669 20.45 15.3 20.45C13.9997 20.45 12.7736 20.1473 11.6778 19.6259C11.3038 19.448 11.1448 19.0005 11.3228 18.6264C11.5008 18.2524 11.9483 18.0935 12.3223 18.2714C13.2285 18.7026 14.2354 18.95 15.3 18.95C19.1384 18.95 22.25 15.8384 22.25 12C22.25 8.16162 19.1384 5.05002 15.3 5.05002Z" fill="rgba(50,81,186,1.0)"></path><path fill-rule="evenodd" clip-rule="evenodd" d="M13.6144 7.08562C10.9002 4.37148 6.49974 4.37148 3.7856 7.08562C1.07147 9.79975 1.07147 14.2002 3.7856 16.9144C6.49974 19.6285 10.9002 19.6285 13.6144 16.9144C16.3285 14.2002 16.3285 9.79975 13.6144 7.08562ZM14.675 6.02496C11.3751 2.72503 6.02487 2.72503 2.72494 6.02496C-0.574981 9.32488 -0.574981 14.6751 2.72494 17.975C6.02487 21.275 11.3751 21.275 14.675 17.975C17.9749 14.6751 17.9749 9.32488 14.675 6.02496Z" fill="rgba(50,81,186,1.0)"></path><path fill-rule="evenodd" clip-rule="evenodd" d="M8.16963 8.1701C8.46252 7.87721 8.93739 7.87721 9.23028 8.1701L12.5305 11.4703C12.8234 11.7632 12.8234 12.2381 12.5305 12.531L9.23028 15.8312C8.93739 16.1241 8.46252 16.1241 8.16963 15.8312L4.86939 12.531C4.5765 12.2381 4.5765 11.7632 4.86939 11.4703L8.16963 8.1701ZM8.69995 9.76108L6.46036 12.0007L8.69995 14.2403L10.9395 12.0007L8.69995 9.76108Z" fill="rgba(50,81,186,1.0)"></path></svg>