<svg width="24" height="24" viewBox="0 0 24 24" fill="none" xmlns="http://www.w3.org/2000/svg">
<path fill-rule="evenodd" clip-rule="evenodd" d="M13.591 4.65164C12.7123 3.77297 11.2877 3.77297 10.409 4.65164L4.65168 10.409C3.77301 11.2877 3.77301 12.7123 4.65168 13.591L10.409 19.3483C11.2877 20.227 12.7123 20.227 13.591 19.3483L19.3483 13.591C20.227 12.7123 20.227 11.2877 19.3483 10.409L13.591 4.65164ZM9.34836 3.59098C10.8128 2.12652 13.1872 2.12652 14.6516 3.59098L20.409 9.34832C21.8735 10.8128 21.8734 13.1871 20.409 14.6516L14.6516 20.409C13.1872 21.8734 10.8128 21.8734 9.34836 20.409L3.59102 14.6516C2.12656 13.1871 2.12656 10.8128 3.59102 9.34832L9.34836 3.59098Z" fill="#3251BA"/>
<path fill-rule="evenodd" clip-rule="evenodd" d="M12.3536 9.41422C12.1583 9.21895 11.8418 9.21895 11.6465 9.41421L9.41427 11.6464C9.21901 11.8417 9.21901 12.1583 9.41427 12.3536L11.6465 14.5858C11.8418 14.7811 12.1583 14.7811 12.3536 14.5858L14.5858 12.3536C14.7811 12.1583 14.7811 11.8417 14.5858 11.6465L12.3536 9.41422ZM10.5858 8.35355C11.3669 7.57251 12.6332 7.57251 13.4143 8.35356L15.6465 10.5858C16.4276 11.3668 16.4275 12.6332 15.6465 13.4142L13.4143 15.6465C12.6332 16.4275 11.3669 16.4275 10.5858 15.6464L8.35361 13.4142C7.57256 12.6332 7.57256 11.3668 8.35361 10.5858L10.5858 8.35355Z" fill="#3251BA"/>
</svg>
