<svg width="30" height="30" viewBox="0 0 30 30" fill="none" xmlns="http://www.w3.org/2000/svg">
<circle cx="15" cy="15" r="15" fill="#00A356"/>
<path d="M15.2502 22.19C13.6035 22.19 12.2672 21.8607 11.2412 21.202C10.2152 20.537 9.6262 19.5142 9.4742 18.1335L12.3622 18.0765C12.5142 18.7035 12.8404 19.1817 13.3407 19.511C13.8474 19.834 14.4807 19.9955 15.2407 19.9955C15.6967 19.9955 16.0989 19.9227 16.4472 19.777C16.8019 19.625 17.0805 19.4223 17.2832 19.169C17.4859 18.9093 17.5872 18.6148 17.5872 18.2855C17.5872 17.7788 17.4257 17.402 17.1027 17.155C16.7797 16.9017 16.2825 16.699 15.6112 16.547L13.3597 16.0625C12.3147 15.8535 11.4755 15.4387 10.8422 14.818C10.2152 14.191 9.89536 13.3518 9.8827 12.3005C9.87636 11.4392 10.1075 10.695 10.5762 10.068C11.0512 9.43467 11.694 8.947 12.5047 8.605C13.3217 8.263 14.2369 8.092 15.2502 8.092C16.2889 8.092 17.185 8.27883 17.9387 8.6525C18.6987 9.01983 19.2814 9.517 19.6867 10.144C20.0984 10.7647 20.2979 11.4518 20.2852 12.2055L17.4827 12.253C17.394 11.645 17.1914 11.1668 16.8747 10.8185C16.558 10.4702 16.0324 10.296 15.2977 10.296C14.9177 10.296 14.5789 10.3372 14.2812 10.4195C13.9835 10.5018 13.727 10.619 13.5117 10.771C13.2964 10.9167 13.1317 11.0908 13.0177 11.2935C12.91 11.4962 12.8562 11.7242 12.8562 11.9775C12.8562 12.3765 12.9892 12.6932 13.2552 12.9275C13.5275 13.1555 14.0374 13.3677 14.7847 13.564L16.9982 14.1055C18.2459 14.4032 19.1452 14.913 19.6962 15.635C20.2535 16.357 20.5322 17.2342 20.5322 18.2665C20.5322 19.0582 20.3137 19.7485 19.8767 20.3375C19.446 20.9265 18.8349 21.3825 18.0432 21.7055C17.2515 22.0285 16.3205 22.19 15.2502 22.19ZM14.0627 6.2965H16.4662V8.7665H14.0627V6.2965ZM14.0152 21.3445H16.4092V23.8145H14.0152V21.3445Z" fill="white"/>
</svg>
