<svg width="30" height="30" viewBox="0 0 30 30" fill="none" xmlns="http://www.w3.org/2000/svg">
<circle cx="15" cy="15" r="15" fill="#F7931A"/>
<path d="M19.137 14.3563C20.0341 13.8842 20.5953 13.0527 20.4642 11.6675C20.2877 9.77456 18.7056 9.13981 16.7084 8.95904L16.708 6.33334H15.1606L15.1601 8.88999C14.753 8.88999 14.338 8.89825 13.9248 8.90681L13.9245 6.33368L12.3784 6.33354L12.3781 8.95859C12.0431 8.96566 11.714 8.97238 11.3927 8.97238V8.96461L9.25833 8.96372L9.25862 10.6704C9.25862 10.6704 10.4014 10.6482 10.3825 10.6698C11.0091 10.6702 11.2137 11.0461 11.2725 11.3706L11.273 14.3618V18.5635C11.2454 18.7671 11.1293 19.0924 10.6912 19.093C10.7112 19.1112 9.56556 19.0928 9.56556 19.0928L9.25862 21.0013H11.272C11.6472 21.0018 12.0158 21.0078 12.3775 21.0108L12.3788 23.6662L13.9245 23.6667L13.924 21.0391C14.3493 21.048 14.7597 21.0519 15.1607 21.0514L15.1602 23.6667H16.7076L16.7085 21.0157C19.3095 20.8613 21.1305 20.1844 21.3569 17.6609C21.5394 15.6293 20.6138 14.7224 19.137 14.3563ZM13.9618 10.7856C14.8345 10.7856 17.5792 10.4985 17.5796 12.3819C17.5792 14.1876 14.8354 13.9767 13.9618 13.9767V10.7856ZM13.9611 19.106L13.9618 15.5876C15.0104 15.5873 18.2992 15.2759 18.2996 17.346C18.3001 19.3312 15.0104 19.1052 13.9611 19.106Z" fill="white"/>
<defs>
<rect width="26" height="26" fill="white" transform="translate(2 2)"/>
</defs>
</svg>
