<svg width="30" height="30" viewBox="0 0 30 30" fill="none" xmlns="http://www.w3.org/2000/svg">
<circle cx="15" cy="15" r="15" fill="#F00500"/>
<path d="M19.1246 8.22445C18.6507 8.69834 18.2166 9.21197 17.8306 9.75964L17.7086 9.71992C17.0049 9.49006 16.2756 9.34818 15.5406 9.29994C15.3193 9.28291 14.4935 9.28291 14.2239 9.29994C13.4095 9.35385 12.7852 9.47587 12.0758 9.72275C12.0474 9.7341 12.0219 9.74262 11.9963 9.75113C11.5962 9.20629 11.1507 8.69551 10.6598 8.22729C13.0151 7.02126 15.7705 6.87654 18.2364 7.82717C18.5003 7.92649 18.7586 8.04284 19.0111 8.1677L19.1246 8.22445Z" fill="#F00500"/>
<path d="M23.5174 18.9878C23.1599 20.0066 22.6235 20.9515 21.9283 21.7745C21.5509 22.2171 21.1337 22.6229 20.6854 22.9918C19.6354 23.8375 18.4096 24.4419 17.1014 24.7597C15.6541 25.1088 14.1445 25.1088 12.6973 24.7597C11.3862 24.4419 10.1632 23.8375 9.11325 22.9918C8.6649 22.6229 8.24775 22.2171 7.87034 21.7745C5.86976 19.4107 5.26249 16.1643 6.28123 13.2387C6.47419 12.6967 6.7154 12.1745 7.00484 11.6779C7.13821 11.4509 7.3028 11.1955 7.38226 11.0905C7.65468 12.2625 7.98952 13.2926 8.11438 13.6643C8.10587 13.6842 8.09452 13.7069 8.08317 13.7268C7.42198 15.0661 7.06443 16.3573 6.9793 17.7307C6.9793 17.7478 6.97646 17.7676 6.97646 17.7847C6.95376 18.1961 6.96511 18.3919 7.03322 18.6502C7.24605 19.4589 7.90156 20.3499 8.9288 21.224C10.6116 22.6542 12.8931 23.6871 14.6212 23.8063C16.4232 23.9283 19.0821 22.8755 20.8528 21.3375C21.1309 21.0906 21.392 20.8295 21.636 20.5514C21.812 20.3471 22.073 19.9952 22.0532 19.9952C22.0475 19.9952 22.0532 19.9896 22.0645 19.9839C22.073 19.9782 22.0815 19.9697 22.0759 19.964C22.073 19.9612 22.0787 19.9527 22.0872 19.9498C22.0957 19.947 22.1014 19.9413 22.0986 19.9356C22.0957 19.93 22.0986 19.9243 22.1099 19.9215C22.1184 19.9186 22.1213 19.9101 22.1184 19.9044C22.1156 19.8988 22.1184 19.8931 22.1241 19.8931C22.1298 19.8931 22.1355 19.8846 22.1355 19.8789C22.1355 19.8732 22.1411 19.8647 22.1468 19.8647C22.1525 19.8647 22.1582 19.859 22.1582 19.8533C22.1667 19.8306 22.1809 19.8079 22.195 19.7881C22.2376 19.7228 22.4079 19.4192 22.4306 19.3681C22.5923 19.002 22.6945 18.6757 22.7427 18.3494C22.7654 18.1933 22.7796 17.9067 22.7683 17.8386C22.7654 17.8272 22.7654 17.8074 22.7626 17.7762C22.7569 17.7194 22.7541 17.6343 22.7484 17.5491C22.7427 17.4214 22.7314 17.2427 22.7229 17.1547C22.6008 15.8664 22.2717 14.8136 21.6474 13.6984C21.6218 13.6558 21.5991 13.6132 21.5849 13.5792C21.5793 13.5707 21.5764 13.5622 21.5736 13.5565C21.6616 13.2926 22.0219 12.1887 22.3086 10.9259L22.3142 10.9316L22.3568 10.9884C22.4306 11.0877 22.6264 11.3828 22.7143 11.5247C23.1145 12.1774 23.4266 12.8783 23.6479 13.6104C24.1616 15.3726 24.119 17.2512 23.5174 18.9878Z" fill="#F00500"/>
<path d="M19.8341 15.5968C19.8256 15.6422 19.6922 15.7784 19.5588 15.8777C19.1672 16.1644 18.4663 16.4311 17.754 16.5588C17.3483 16.6326 16.9425 16.6439 16.8204 16.5843C16.741 16.5446 16.7296 16.5134 16.758 16.4112C16.8176 16.1984 17.0106 15.9657 17.3114 15.7472C17.4646 15.6365 18.0861 15.2591 18.3755 15.1002C18.8522 14.8392 19.2382 14.6831 19.4992 14.6462C19.5815 14.6348 19.6808 14.632 19.7121 14.6462C19.7631 14.6661 19.8199 14.8164 19.8426 14.9981C19.8539 15.0945 19.8483 15.5202 19.8341 15.5968Z" fill="black"/>
<path d="M13.1485 16.5361C13.1314 16.5701 13.0463 16.607 12.9498 16.6212C12.8534 16.6354 12.5582 16.6269 12.3908 16.607C11.7892 16.5276 11.1507 16.3431 10.6854 16.1161C10.4243 15.9884 10.237 15.8607 10.0979 15.7217L10.0185 15.6394L10.01 15.5315C9.99579 15.3442 9.99863 15.0491 10.0213 14.9441C10.0355 14.8562 10.0667 14.771 10.1093 14.6944C10.132 14.666 10.132 14.666 10.2342 14.666C10.359 14.666 10.464 14.6859 10.6343 14.7398C10.9833 14.8477 11.5026 15.1087 12.1354 15.489C12.6576 15.8011 12.8534 15.9544 13.0037 16.1643C13.1059 16.2949 13.174 16.4793 13.1485 16.5361Z" fill="black"/>
<path d="M17.1667 20.4861C17.1667 20.4947 17.1326 20.6309 17.09 20.7926C17.0475 20.9544 17.0134 21.0849 17.0134 21.0906C16.9822 21.0934 16.9538 21.0963 16.9226 21.0934H16.8318L16.707 21.3885C16.6388 21.5503 16.5764 21.7007 16.5679 21.7234L16.5509 21.7631L16.4913 21.6666L16.4317 21.5702V20.7841L16.409 20.7898C16.3608 20.8011 16.0174 20.8465 15.867 20.8607C15.2455 20.9232 14.6212 20.909 14.0026 20.821C13.9033 20.8068 13.8182 20.7955 13.8153 20.7983C13.8125 20.8011 13.8153 20.9827 13.821 21.2069L13.8295 21.6099L13.7813 21.6837C13.7557 21.7234 13.7302 21.7574 13.7302 21.7603C13.7217 21.7688 13.6933 21.7234 13.628 21.5929C13.5571 21.4566 13.506 21.3119 13.4691 21.1615L13.4493 21.0792L13.3613 21.0849L13.2733 21.0934L13.2506 20.9884C13.2393 20.9317 13.2251 20.8437 13.2194 20.7955L13.2109 20.7047L13.1371 20.6394C13.0946 20.6025 13.052 20.5656 13.0435 20.5599C13.0293 20.5486 13.0236 20.5287 13.0236 20.5117V20.4776L13.3783 20.4805L13.733 20.4833L13.7444 20.5202L13.7557 20.5571L13.8778 20.5628C13.9459 20.5656 14.1615 20.5713 14.3545 20.577L14.7092 20.5855L14.8 20.4436L14.8937 20.3017H15.0128L15.01 20.0066L15.0072 19.7115L14.8511 19.6434C14.3488 19.422 14.0537 19.1695 13.943 18.863C13.9203 18.8006 13.9203 18.7779 13.9147 18.4941C13.9118 18.2132 13.9118 18.1876 13.9317 18.1252C13.9714 17.9833 14.0821 17.8726 14.224 17.8357C14.2722 17.8215 14.3999 17.8215 15.0696 17.8215L15.8585 17.8244L15.9464 17.867C16.0514 17.918 16.0997 17.9549 16.1593 18.0344C16.2274 18.1252 16.2472 18.1961 16.2472 18.3692C16.2472 18.6161 16.2302 18.8289 16.2047 18.9141C16.1678 19.0304 16.111 19.1411 16.0401 19.2404C15.8982 19.422 15.64 19.6036 15.4044 19.6859L15.3363 19.7115L15.3392 20.0094L15.342 20.3074L15.4044 20.313L15.4669 20.3187L15.552 20.4464L15.6343 20.5741H16.0146C16.2245 20.5741 16.409 20.577 16.426 20.5798C16.4544 20.5855 16.4601 20.5826 16.4885 20.5344L16.5225 20.4833H16.8488C17.0929 20.472 17.1667 20.4776 17.1667 20.4861Z" fill="black"/>
<path d="M15.6683 21.3006C15.6144 21.3318 15.5775 21.346 15.569 21.3403C15.5605 21.3375 15.5207 21.3034 15.4782 21.2722L15.4016 21.2098L15.3221 21.2949C15.149 21.4822 15.1433 21.4907 15.0923 21.4936C15.0128 21.5021 14.9958 21.4879 14.8993 21.3432C14.8482 21.2694 14.8085 21.2069 14.8085 21.2069C14.8085 21.2069 14.7716 21.2013 14.729 21.1984L14.6496 21.1899L14.6127 21.2665L14.5758 21.3432L14.5105 21.3233C14.4594 21.3063 14.4084 21.2864 14.3601 21.2637L14.275 21.2211V21.0594L15.0298 21.0622L15.7847 21.0651L15.7875 21.1417C15.7903 21.2325 15.7932 21.2296 15.6683 21.3006Z" fill="black"/>
<path d="M22.7626 17.8386C22.7597 17.8272 22.7597 17.8074 22.7569 17.7761C22.0759 17.7024 20.132 17.657 18.3273 19.1468C18.3273 19.1468 17.7455 16.4793 15.0213 16.4793C12.2971 16.4793 11.2869 19.1468 11.2869 19.1468C9.76024 17.5037 7.7171 17.6229 6.9793 17.7307C6.9793 17.7478 6.97646 17.7676 6.97646 17.7847C6.95376 18.1961 6.96511 18.3919 7.03321 18.6502C7.24604 19.4589 7.90155 20.3499 8.9288 21.224C10.6116 22.6542 12.8931 23.6871 14.6212 23.8063C16.4232 23.9283 19.0821 22.8755 20.8528 21.3375C21.1309 21.0906 21.392 20.8295 21.636 20.5514C21.812 20.3471 22.073 19.9952 22.0532 19.9952C22.0475 19.9952 22.0532 19.9896 22.0645 19.9839C22.073 19.9782 22.0815 19.9697 22.0759 19.964C22.073 19.9612 22.0787 19.9527 22.0872 19.9498C22.0957 19.947 22.1014 19.9413 22.0986 19.9356C22.0957 19.93 22.0986 19.9243 22.1099 19.9214C22.1184 19.9186 22.1213 19.9101 22.1184 19.9044C22.1156 19.8987 22.1184 19.8931 22.1241 19.8931C22.1298 19.8931 22.1355 19.8846 22.1355 19.8789C22.1355 19.8732 22.1411 19.8647 22.1468 19.8647C22.1525 19.8647 22.1582 19.859 22.1582 19.8533C22.1667 19.8306 22.1809 19.8079 22.195 19.7881C22.2376 19.7228 22.4079 19.4192 22.4306 19.3681C22.5923 19.002 22.6945 18.6757 22.7427 18.3494C22.7597 18.1933 22.7739 17.9067 22.7626 17.8386ZM15.6683 21.3006C15.6144 21.3318 15.5775 21.346 15.569 21.3403C15.5605 21.3375 15.5208 21.3034 15.4782 21.2722L15.4016 21.2098L15.3221 21.2949C15.149 21.4822 15.1434 21.4907 15.0923 21.4935C15.0128 21.502 14.9958 21.4879 14.8993 21.3431C14.8482 21.2694 14.8085 21.2069 14.8085 21.2069C14.8085 21.2069 14.7716 21.2012 14.7291 21.1984L14.6496 21.1899L14.6127 21.2665L14.5758 21.3431L14.5106 21.3233C14.4595 21.3062 14.4084 21.2864 14.3602 21.2637L14.275 21.2211V21.0594L15.0299 21.0622L15.7847 21.065L15.7875 21.1417C15.7904 21.2325 15.7932 21.2296 15.6683 21.3006ZM17.0872 20.7898C17.0446 20.9515 17.0106 21.0821 17.0106 21.0877C16.9793 21.0906 16.951 21.0934 16.9198 21.0906H16.829L16.7069 21.3885C16.6388 21.5503 16.5764 21.7007 16.5679 21.7234L16.5509 21.7631L16.4913 21.6666L16.4317 21.5702V20.7841L16.409 20.7898C16.3607 20.8011 16.0174 20.8465 15.867 20.8607C15.2455 20.9232 14.6212 20.909 14.0026 20.821C13.9033 20.8068 13.8182 20.7955 13.8153 20.7983C13.8125 20.8011 13.8153 20.9827 13.821 21.2069L13.8295 21.6099L13.7813 21.6837C13.7557 21.7234 13.7302 21.7574 13.7302 21.7603C13.7217 21.7688 13.6933 21.7234 13.628 21.5929C13.5571 21.4566 13.506 21.3119 13.4691 21.1615L13.4493 21.0792L13.3613 21.0849L13.2733 21.0934L13.2506 20.9884C13.2393 20.9317 13.2251 20.8437 13.2194 20.7955L13.2109 20.7047L13.1371 20.6394C13.0945 20.6025 13.052 20.5656 13.0435 20.5599C13.0293 20.5486 13.0236 20.5287 13.0236 20.5117V20.4776L13.3783 20.4805L13.733 20.4833L13.7444 20.5202L13.7557 20.5571L13.8777 20.5628C13.9459 20.5656 14.1615 20.5713 14.3545 20.577L14.7092 20.5855L14.8 20.4436L14.8936 20.3017H15.0128L15.01 20.0066L15.0071 19.7115L14.8511 19.6434C14.3488 19.422 14.0537 19.1695 13.943 18.863C13.9203 18.8006 13.9203 18.7779 13.9146 18.4941C13.9118 18.2132 13.9118 18.1876 13.9317 18.1252C13.9714 17.9833 14.0821 17.8726 14.2239 17.8357C14.2722 17.8215 14.3999 17.8215 15.0696 17.8215L15.8585 17.8244L15.9464 17.867C16.0514 17.918 16.0997 17.9549 16.1593 18.0344C16.2274 18.1252 16.2472 18.1961 16.2472 18.3692C16.2472 18.6161 16.2302 18.8289 16.2047 18.9141C16.1678 19.0304 16.111 19.1411 16.0401 19.2404C15.8982 19.422 15.64 19.6036 15.4044 19.6859L15.3363 19.7115L15.3392 20.0094L15.342 20.3074L15.4044 20.313L15.4669 20.3187L15.552 20.4464L15.6343 20.5741H16.0145C16.2245 20.5741 16.409 20.577 16.426 20.5798C16.4544 20.5855 16.4601 20.5826 16.4884 20.5344L16.5225 20.4833H16.8488C17.1014 20.4833 17.1752 20.4861 17.1752 20.4947C17.1666 20.4918 17.1297 20.6309 17.0872 20.7898Z" fill="white"/>
<path d="M22.7399 17.5491C22.7342 17.4214 22.7228 17.2427 22.7143 17.1547C22.5923 15.8664 22.2631 14.8136 21.6388 13.6984C21.6133 13.6558 21.5906 13.6132 21.5764 13.5792C21.5707 13.5707 21.5679 13.5622 21.5651 13.5565C21.653 13.2926 22.0134 12.1887 22.3 10.9259C22.6888 9.21196 22.9357 7.20855 22.1808 6.60696C22.1808 6.60696 20.8755 6.51048 19.1275 8.22445C18.6536 8.69834 18.2194 9.21197 17.8335 9.75964L17.7115 9.71991C17.0077 9.49006 16.2784 9.34817 15.5435 9.29993C15.3221 9.28291 14.4963 9.28291 14.2268 9.29993C13.4123 9.35385 12.7881 9.47587 12.0786 9.72275C12.0503 9.7341 12.0247 9.74261 11.9992 9.75113C11.5991 9.20629 11.1535 8.6955 10.6626 8.22728C8.84365 6.5048 7.49007 6.60412 7.49007 6.60412C6.68984 7.22558 6.96226 9.3198 7.37656 11.0905C7.64898 12.2625 7.98383 13.2926 8.10869 13.6643C8.10017 13.6842 8.08882 13.7069 8.07747 13.7267C7.41629 15.0661 7.05874 16.3573 6.97361 17.7307C7.71425 17.6229 9.75455 17.5009 11.2841 19.1468C11.2841 19.1468 12.2943 16.4793 15.0185 16.4793C17.7427 16.4793 18.3244 19.1468 18.3244 19.1468C20.1292 17.657 22.073 17.7052 22.7541 17.7761C22.7512 17.7194 22.7455 17.6343 22.7399 17.5491ZM8.64501 12.5945C8.64501 12.5945 7.58371 9.94125 7.85613 8.42592C7.90153 8.17053 7.98667 7.94635 8.12004 7.77609C8.12004 7.77609 9.32322 7.89527 11.2642 10.0519C11.2642 10.0519 10.8953 10.2307 10.4015 10.611C10.4015 10.611 10.3987 10.6138 10.3959 10.6138C9.85955 11.0253 9.17282 11.6779 8.64501 12.5945ZM13.1484 16.5361C13.1314 16.5701 13.0463 16.607 12.9498 16.6212C12.8533 16.6354 12.5582 16.6269 12.3908 16.607C11.7892 16.5276 11.1507 16.3431 10.6853 16.1161C10.4242 15.9884 10.237 15.8607 10.0979 15.7216L10.0185 15.6394L10.0099 15.5315C9.99576 15.3442 9.99859 15.0491 10.0213 14.9441C10.0355 14.8561 10.0667 14.771 10.1093 14.6944C10.132 14.666 10.132 14.666 10.2341 14.666C10.359 14.666 10.464 14.6859 10.6342 14.7398C10.9833 14.8476 11.5026 15.1087 12.1354 15.489C12.6575 15.8011 12.8533 15.9543 13.0037 16.1643C13.1059 16.2949 13.174 16.4793 13.1484 16.5361ZM19.8341 15.5968C19.8255 15.6422 19.6922 15.7784 19.5588 15.8777C19.1672 16.1643 18.4663 16.4311 17.754 16.5588C17.3482 16.6325 16.9424 16.6439 16.8204 16.5843C16.741 16.5446 16.7296 16.5134 16.758 16.4112C16.8176 16.1984 17.0105 15.9657 17.3113 15.7472C17.4646 15.6365 18.086 15.2591 18.3755 15.1002C18.8522 14.8391 19.2381 14.6831 19.4992 14.6462C19.5815 14.6348 19.6808 14.632 19.712 14.6462C19.7631 14.666 19.8199 14.8164 19.8426 14.998C19.8539 15.0945 19.8482 15.5202 19.8341 15.5968ZM19.363 10.611L19.3573 10.6081C18.8806 10.2279 18.523 10.0491 18.523 10.0491C20.3988 7.89243 21.5594 7.77325 21.5594 7.77325C21.6871 7.94635 21.7694 8.16769 21.8148 8.42308C22.0787 9.93842 21.0543 12.5945 21.0543 12.5945C20.6258 11.8312 20.0497 11.1558 19.363 10.611Z" fill="#FFA409"/>
<path d="M21.8176 8.42308C21.5963 8.3947 20.5492 8.38902 19.363 10.6109L19.3573 10.6081C18.8806 10.2279 18.523 10.0491 18.523 10.0491C20.3988 7.89243 21.5594 7.77324 21.5594 7.77324C21.6899 7.94634 21.7722 8.16768 21.8176 8.42308Z" fill="#FF9300"/>
<path d="M21.0571 12.5945C20.6258 11.8283 20.0526 11.1558 19.363 10.6109C20.5492 8.38902 21.5934 8.39469 21.8176 8.42307C22.0815 9.94124 21.0571 12.5945 21.0571 12.5945Z" fill="#FF8300"/>
<path d="M21.8602 8.43156C21.846 8.42873 21.8318 8.42589 21.8176 8.42305L21.8602 8.43156Z" fill="#FF8300"/>
<path d="M11.2642 10.0491C11.2642 10.0491 10.8953 10.2279 10.4015 10.6081C10.4015 10.6081 10.3987 10.6109 10.3958 10.6109C9.16711 8.38619 8.08594 8.3947 7.85325 8.42308C7.89866 8.16768 7.98379 7.9435 8.11716 7.77324C8.12 7.77324 9.32318 7.89243 11.2642 10.0491Z" fill="#FF9300"/>
<path d="M10.3987 10.6109C9.85953 11.0252 9.17281 11.6751 8.645 12.5945C8.645 12.5945 7.5837 9.94124 7.85611 8.42307C8.08597 8.39469 9.16997 8.38902 10.3987 10.6109Z" fill="#FF8300"/>
<path d="M7.85614 8.42305C7.84195 8.42589 7.82493 8.42873 7.81074 8.43156L7.85614 8.42305Z" fill="#FF8300"/>
<path d="M18.1854 14.0673C18.1854 14.0673 17.2773 14.124 17.3908 13.4146C17.5043 12.7052 18.2137 12.6201 18.4124 12.6484C18.611 12.6768 19.4056 12.9606 19.2637 13.5565C19.1218 14.1524 18.9232 14.0389 18.8097 14.0673C18.6961 14.0957 18.1854 14.0673 18.1854 14.0673Z" fill="white"/>
<path d="M11.4884 14.0673C11.4884 14.0673 10.5804 14.124 10.6939 13.4146C10.8074 12.7052 11.5168 12.6201 11.7154 12.6484C11.9141 12.6768 12.7086 12.9606 12.5667 13.5565C12.4249 14.1524 12.2262 14.0389 12.1127 14.0673C11.9992 14.0957 11.4884 14.0673 11.4884 14.0673Z" fill="white"/>
</svg>
