<svg width="30" height="30" viewBox="0 0 30 30" fill="none" xmlns="http://www.w3.org/2000/svg">
<circle cx="15" cy="15" r="15" fill="black"/>
<path d="M17.8469 17.2677L22.3919 21.5136H19.7285L19.5223 21.4325L16.4798 18.5902C15.6847 17.8475 14.389 17.8475 13.5939 18.5902L10.5514 21.4325L10.3452 21.5136H7.68183L12.2268 17.2677C13.7806 15.8163 16.2931 15.8163 17.8469 17.2677ZM10.3524 9.06656L10.5587 9.14772L13.5879 11.9807C14.3864 12.7275 15.6873 12.7275 16.4858 11.9807L19.5151 9.14772L19.7214 9.06656H22.3913L17.8568 13.3073C16.2976 14.7655 13.7761 14.7655 12.217 13.3074L7.68244 9.06656H10.3524Z" fill="white"/>
</svg>
